<?xml version="1.0" standalone="no"?>
<!DOCTYPE svg PUBLIC "-//W3C//DTD SVG 20010904//EN"
 "http://www.w3.org/TR/2001/REC-SVG-20010904/DTD/svg10.dtd">
<svg version="1.0" xmlns="http://www.w3.org/2000/svg"
 width="1280.000000pt" height="1280.000000pt" viewBox="0 0 1280.000000 1280.000000"
 preserveAspectRatio="xMidYMid meet">
<metadata>
Created by potrace 1.15, written by Peter Selinger 2001-2017
</metadata>
<g transform="translate(0.000000,1280.000000) scale(0.100000,-0.100000)"
fill="#000000" stroke="none">
<path d="M6340 12450 c-812 -37 -1617 -248 -2355 -617 -209 -105 -282 -146
-510 -291 -251 -159 -556 -391 -790 -600 -212 -190 -558 -556 -711 -753 -278
-358 -559 -831 -739 -1244 -266 -607 -434 -1278 -485 -1934 -15 -200 -13 -726
5 -921 34 -383 127 -883 217 -1160 204 -635 452 -1167 746 -1600 108 -160 274
-386 340 -463 20 -24 73 -87 116 -141 100 -122 472 -489 631 -621 111 -93 255
-207 400 -316 396 -300 1062 -635 1625 -817 211 -69 454 -126 750 -176 409
-70 675 -98 970 -100 589 -5 1084 57 1602 200 245 68 512 158 671 228 67 30
133 57 147 61 45 13 503 242 630 315 221 127 461 297 720 509 375 306 706 648
966 996 197 263 332 467 466 705 377 666 637 1492 725 2305 25 234 25 913 0
1145 -68 612 -179 1066 -393 1593 -413 1020 -1077 1885 -1946 2534 -600 449
-1188 733 -1958 947 -312 86 -481 122 -830 175 -261 40 -675 56 -1010 41z
m638 -891 c173 -12 433 -52 677 -104 113 -24 506 -136 660 -188 453 -154 903
-395 1315 -706 300 -226 599 -512 846 -811 147 -179 164 -203 402 -600 180
-300 354 -656 464 -950 110 -295 209 -755 250 -1165 17 -169 17 -739 0 -905
-37 -357 -127 -792 -234 -1120 -294 -906 -862 -1723 -1618 -2331 -259 -208
-422 -321 -634 -439 -387 -215 -805 -386 -1221 -498 -588 -159 -1250 -202
-1845 -121 -421 57 -741 125 -982 208 -429 148 -890 372 -1198 582 -258 176
-478 356 -733 602 -240 230 -402 422 -617 729 -197 283 -333 534 -496 913
-347 811 -468 1707 -348 2575 121 876 445 1663 980 2379 164 219 507 572 769
791 479 400 971 683 1538 884 435 155 951 258 1387 279 166 8 505 6 638 -4z"/>
<path d="M6077 9950 c-80 -15 -128 -77 -131 -168 -1 -69 17 -317 50 -662 13
-140 28 -311 34 -380 6 -69 15 -172 20 -230 6 -58 15 -172 21 -255 5 -82 14
-190 19 -240 5 -49 14 -144 20 -210 5 -66 12 -138 15 -160 3 -22 10 -110 16
-195 10 -148 15 -198 38 -445 6 -60 18 -198 26 -305 27 -335 34 -414 39 -455
3 -22 10 -96 16 -165 6 -69 15 -168 21 -220 5 -52 14 -162 19 -245 13 -202 37
-490 50 -600 5 -49 12 -121 15 -160 3 -38 10 -115 16 -170 5 -55 14 -167 20
-250 11 -174 23 -319 38 -460 6 -55 16 -165 22 -245 6 -80 13 -148 17 -152 4
-4 142 -8 307 -9 341 -2 317 -9 296 86 -12 55 -38 236 -51 360 -5 44 -16 134
-25 200 -9 66 -21 152 -25 190 -5 39 -14 108 -20 155 -28 222 -28 210 -9 221
11 5 240 8 581 7 l563 -3 0 -60 c0 -57 -5 -92 -41 -285 -14 -79 -30 -184 -54
-355 -6 -38 -24 -148 -40 -245 -42 -244 -48 -280 -41 -284 13 -8 457 -10 469
-3 6 5 12 23 12 42 0 18 4 55 10 82 24 123 51 275 61 348 28 215 38 285 49
340 6 33 15 83 20 110 5 28 14 91 20 140 6 50 13 97 16 105 3 8 10 46 15 85 5
38 14 93 19 120 4 28 15 97 24 155 17 113 31 205 46 285 22 127 36 220 75 498
8 60 18 113 21 119 7 10 16 72 49 308 7 58 19 132 24 165 6 33 15 89 21 125 6
36 18 108 26 160 20 130 31 204 43 275 6 33 15 89 21 125 6 36 17 110 25 165
8 55 23 154 35 220 12 66 28 163 35 215 32 229 46 318 54 365 70 380 84 533
56 624 -34 111 -131 206 -255 250 -30 11 -120 43 -200 71 -80 28 -208 74 -285
101 -77 28 -189 68 -250 89 -60 22 -146 52 -190 67 -44 16 -84 31 -90 34 -5 4
-23 9 -40 13 -16 4 -43 13 -60 21 -16 7 -66 25 -110 40 -44 15 -143 50 -220
77 -77 28 -185 65 -240 84 -55 19 -109 39 -120 44 -11 5 -42 16 -70 25 -27 8
-59 19 -70 24 -39 17 -131 50 -170 61 -22 7 -85 29 -140 50 -55 21 -131 47
-170 59 -38 13 -83 29 -100 36 -42 19 -204 71 -240 77 -16 3 -47 2 -68 -2z
m992 -974 c8 -9 11 -79 9 -232 l-3 -219 -235 0 -235 0 -3 220 c-1 121 0 225 2
232 8 20 449 19 465 -1z m909 -445 c2 -173 -1 -226 -10 -233 -22 -13 -442 -10
-456 4 -13 13 -18 439 -5 452 4 3 110 5 237 4 l231 -3 3 -224z m800 -228 l2
-232 -177 -3 c-98 -2 -203 -1 -233 2 l-55 5 -3 224 c-2 173 1 226 10 233 7 4
112 7 233 5 l220 -2 3 -232z m-800 -846 c2 -210 1 -228 -15 -235 -10 -4 -114
-7 -231 -7 -178 0 -214 2 -222 15 -11 17 -14 443 -3 454 4 3 110 5 237 4 l231
-3 3 -228z m-910 -309 c13 -13 18 -421 6 -452 -5 -14 -35 -16 -228 -16 -159 0
-225 3 -234 12 -9 9 -12 73 -12 228 0 155 3 219 12 228 9 9 73 12 228 12 155
0 219 -3 228 -12z m1036 -630 c10 -40 7 -418 -4 -439 -10 -18 -23 -19 -220
-19 -114 0 -215 3 -224 6 -14 5 -16 35 -16 233 0 125 3 231 7 234 3 4 106 7
229 7 221 0 222 0 228 -22z m-526 -940 c4 -13 5 -120 2 -238 l-5 -215 -219 -3
c-153 -2 -223 1 -232 9 -11 9 -14 55 -14 218 0 113 3 216 6 229 6 22 6 22 230
22 224 0 225 0 232 -22z"/>
<path d="M5507 9748 c-36 -24 -119 -83 -184 -133 -64 -49 -135 -103 -158 -120
-24 -16 -139 -103 -257 -191 -241 -182 -280 -224 -337 -364 -33 -79 -35 -93
-36 -195 0 -60 6 -139 13 -175 12 -59 24 -137 52 -335 5 -38 14 -97 20 -130 5
-33 10 -61 10 -62 0 -2 256 -3 569 -3 461 0 571 -3 580 -13 7 -10 14 -238 21
-738 6 -398 15 -859 20 -1024 6 -165 14 -556 20 -870 12 -684 31 -1602 33
-1629 1 -12 14 -23 32 -29 17 -5 114 -42 217 -83 103 -41 190 -74 193 -74 4 0
4 15 1 34 -9 48 -45 445 -66 721 -5 72 -16 180 -24 240 -8 61 -17 146 -21 190
-3 44 -10 123 -15 175 -5 52 -16 183 -25 290 -17 217 -32 365 -46 456 -5 33
-9 84 -9 113 0 29 -4 82 -10 119 -5 37 -14 130 -20 207 -11 149 -23 291 -40
445 -10 90 -26 271 -50 550 -5 69 -14 159 -20 200 -5 41 -14 138 -20 215 -6
77 -15 176 -20 220 -5 44 -14 143 -21 220 -14 168 -24 276 -38 410 -14 124
-28 278 -41 460 -11 147 -44 478 -60 605 -5 41 -12 111 -15 154 -10 127 -52
185 -135 186 -37 0 -59 -8 -113 -42z"/>
<path d="M3575 7867 c-54 -14 -141 -103 -152 -154 -12 -59 -6 -186 16 -297 11
-56 27 -148 35 -206 28 -185 36 -233 56 -355 27 -167 39 -244 55 -360 8 -55
19 -125 25 -155 13 -71 28 -160 45 -285 29 -204 33 -232 48 -305 14 -70 26
-151 63 -410 8 -58 18 -125 23 -150 6 -25 15 -76 21 -115 6 -38 15 -95 21
-125 5 -30 14 -89 19 -130 5 -41 14 -97 20 -123 5 -26 14 -82 20 -125 19 -139
40 -276 45 -307 3 -16 10 -52 15 -80 16 -89 29 -168 45 -285 28 -203 57 -365
67 -377 13 -16 1614 -16 1626 1 8 11 3 449 -17 1406 -7 305 -16 785 -21 1065
-11 585 -27 1314 -36 1653 l-6 232 -997 -1 c-662 -1 -1009 -5 -1036 -12z m785
-677 c3 -30 3 -136 0 -235 l-5 -180 -230 0 -230 0 -3 224 c-2 158 1 228 9 237
10 12 54 14 233 12 l221 -3 5 -55z m724 -206 c14 -5 16 -35 16 -234 0 -199 -2
-229 -16 -234 -23 -9 -427 -7 -441 2 -19 12 -19 452 -1 463 15 10 418 12 442
3z m-546 -991 l2 -233 -229 0 c-150 0 -232 4 -236 11 -8 12 -7 438 1 451 3 4
107 7 232 6 l227 -3 3 -232z m450 -475 c17 -17 17 -439 0 -456 -17 -17 -439
-17 -456 0 -13 13 -18 449 -5 461 12 13 448 8 461 -5z m50 -965 c2 -217 1
-233 -15 -234 -77 -3 -437 2 -444 7 -15 9 -11 451 4 457 6 3 111 5 232 4 l220
-2 3 -232z"/>
<path d="M3173 7640 c-28 -16 -139 -158 -325 -415 -150 -207 -175 -457 -79
-795 12 -41 26 -97 31 -125 13 -62 91 -389 131 -545 16 -63 33 -135 38 -160 5
-25 14 -72 21 -105 6 -33 15 -69 20 -80 4 -11 13 -42 20 -70 6 -27 15 -66 21
-85 5 -19 13 -57 18 -85 12 -59 24 -109 44 -185 8 -30 22 -89 31 -130 16 -73
50 -212 121 -505 19 -77 42 -174 50 -215 9 -41 23 -100 31 -130 8 -30 21 -77
29 -105 7 -27 16 -71 20 -97 8 -56 13 -60 85 -82 30 -9 84 -28 120 -42 36 -14
74 -29 85 -34 42 -16 161 -59 183 -65 20 -6 23 -4 19 12 -3 10 -11 63 -17 118
-6 55 -15 123 -20 150 -18 94 -50 300 -60 380 -26 213 -31 254 -41 305 -10 56
-29 188 -54 380 -8 58 -19 128 -24 157 -6 28 -15 89 -21 135 -6 46 -16 115
-21 153 -5 39 -16 117 -24 175 -8 58 -19 132 -25 165 -14 84 -28 184 -41 290
-5 50 -14 113 -19 140 -20 116 -59 380 -80 542 -12 97 -48 345 -59 413 -6 30
-17 111 -26 180 -28 216 -54 331 -81 361 -22 24 -61 24 -101 -1z"/>
<path d="M9152 7118 c-6 -29 -13 -75 -17 -103 -3 -27 -10 -70 -15 -95 -5 -25
-21 -119 -35 -210 -14 -91 -30 -187 -35 -215 -6 -27 -24 -135 -41 -240 -18
-104 -36 -210 -40 -235 -5 -25 -13 -81 -19 -125 -12 -91 -26 -179 -47 -280
-14 -74 -36 -209 -53 -335 -6 -41 -19 -124 -30 -185 -11 -60 -24 -135 -30
-165 -5 -30 -12 -68 -15 -85 -3 -16 -12 -75 -20 -130 -8 -55 -20 -125 -26
-155 -13 -73 -27 -155 -44 -270 -8 -52 -24 -144 -35 -205 -11 -60 -27 -157
-36 -215 -8 -58 -20 -136 -26 -175 -6 -38 -12 -88 -12 -110 l-1 -40 533 -3
532 -2 14 32 c30 71 137 378 196 563 16 50 47 142 70 205 22 63 58 167 79 230
22 63 50 147 64 185 14 39 36 106 50 150 14 44 60 179 102 300 42 121 98 285
125 365 27 80 76 224 109 320 166 477 211 620 211 666 0 68 -48 162 -105 206
-55 43 -117 68 -245 98 -52 12 -108 27 -125 34 -16 7 -73 23 -125 35 -52 12
-140 35 -195 51 -157 44 -323 89 -410 111 -44 11 -121 33 -171 49 -50 17 -98
30 -106 30 -10 0 -18 -18 -26 -52z m663 -648 l0 -235 -219 -3 c-153 -2 -223 1
-232 9 -19 16 -20 439 -2 457 9 9 70 12 233 10 l220 -3 0 -235z m161 -661 c22
-18 20 -431 -2 -453 -13 -14 -47 -16 -220 -16 -123 0 -213 4 -225 10 -18 10
-19 23 -19 236 0 213 1 225 19 232 33 12 431 4 447 -9z m-218 -1028 c2 -173
-1 -226 -10 -233 -15 -9 -418 -11 -442 -2 -14 5 -16 36 -16 235 l0 229 233 -2
232 -3 3 -224z"/>
</g>
</svg>
