<?xml version="1.0" standalone="no"?>
<!DOCTYPE svg PUBLIC "-//W3C//DTD SVG 20010904//EN"
 "http://www.w3.org/TR/2001/REC-SVG-20010904/DTD/svg10.dtd">
<svg version="1.0" xmlns="http://www.w3.org/2000/svg"
 width="2000.000000pt" height="2000.000000pt" viewBox="0 0 2000.000000 2000.000000"
 preserveAspectRatio="xMidYMid meet">

<g transform="translate(0.000000,2000.000000) scale(0.100000,-0.100000)"
fill="#000000" stroke="none">
<path d="M0 10000 l0 -10000 10000 0 10000 0 0 10000 0 10000 -10000 0 -10000
0 0 -10000z m11369 7545 c32 -16 41 -33 41 -75 0 -46 -31 -75 -80 -75 -50 0
-80 30 -80 79 0 35 14 57 45 74 27 15 41 15 74 -3z m-4829 -610 c72 -77 -41
-185 -115 -110 -16 15 -25 36 -25 55 0 71 91 107 140 55z m480 -725 c24 -24
25 -38 4 -68 -17 -24 -62 -30 -82 -10 -29 29 -1 98 40 98 10 0 27 -9 38 -20z
m1495 -870 c204 -11 376 -20 384 -20 23 0 -49 -60 -98 -83 -29 -13 -80 -22
-145 -27 -67 -5 -126 -16 -176 -34 -69 -24 -85 -26 -217 -24 -149 3 -150 3
-158 48 0 3 -6 14 -12 25 -6 11 -23 46 -37 78 l-25 57 57 0 c31 0 224 -9 427
-20z m683 -36 c147 -7 154 -13 59 -55 -38 -16 -81 -24 -157 -29 -58 -4 -116
-13 -130 -19 -53 -26 -75 -87 -57 -154 5 -19 4 -27 -2 -22 -6 3 -8 0 -5 -9 12
-30 -33 -26 -110 10 -73 35 -80 36 -159 31 -47 -2 -120 -16 -172 -32 -99 -30
-259 -43 -379 -30 -60 6 -66 9 -66 29 0 17 14 32 50 54 47 29 52 30 83 17 18
-7 70 -20 115 -29 115 -22 183 -6 273 65 65 51 81 54 162 34 97 -24 140 -16
189 36 20 21 43 57 49 80 l13 41 55 -6 c31 -3 116 -8 189 -12z m402 -20 c145
-4 177 -8 188 -22 30 -39 -4 -74 -88 -92 -41 -9 -67 -21 -86 -41 -15 -16 -35
-29 -45 -29 -21 0 -69 -37 -69 -54 0 -30 -61 -95 -110 -118 -61 -28 -69 -54
-12 -43 68 13 128 45 166 91 22 26 45 44 57 44 12 0 34 13 49 30 15 16 57 43
91 58 81 36 94 53 94 114 l0 48 65 0 c105 0 139 -9 146 -37 14 -56 -21 -86
-138 -118 -41 -11 -67 -26 -97 -56 -24 -25 -44 -38 -52 -33 -8 4 -10 3 -5 -4
13 -22 -230 -130 -342 -152 -40 -8 -62 -17 -62 -26 0 -19 10 -18 169 11 202
36 266 63 340 139 32 32 65 53 113 72 70 26 89 44 109 102 8 25 8 38 -5 62
l-15 31 147 -7 c81 -4 149 -8 150 -10 14 -11 2 -74 -17 -101 -25 -34 -42 -43
-134 -74 -70 -23 -124 -60 -136 -92 -15 -39 -44 -54 -129 -65 -89 -12 -200
-54 -271 -101 -25 -17 -49 -27 -54 -24 -6 3 -7 1 -3 -5 10 -16 -94 -51 -174
-58 l-70 -7 0 -43 0 -44 105 0 105 0 13 33 c14 32 13 32 -17 37 l-31 5 42 19
c23 10 50 28 60 38 28 31 68 48 112 48 22 0 52 4 66 10 14 5 72 13 128 16 131
9 143 15 188 99 11 21 39 42 97 70 97 48 126 74 148 131 13 34 14 50 6 73
l-11 31 67 0 c37 -1 137 -5 222 -10 178 -11 306 -17 402 -19 60 -1 69 -4 84
-26 13 -20 14 -30 5 -58 -20 -60 -72 -79 -311 -112 -195 -27 -287 -56 -383
-117 -28 -18 -71 -35 -100 -39 -28 -5 -63 -18 -77 -29 -110 -88 -192 -127
-285 -137 -60 -6 -59 -6 -45 -33 8 -15 15 -17 37 -9 16 5 66 20 114 34 52 15
110 41 150 67 53 35 75 43 130 48 47 5 86 17 130 40 84 44 152 64 338 101 84
17 178 39 208 51 104 38 150 105 125 178 l-11 30 44 0 c101 0 2187 -109 2193
-115 2 -1 -1 -101 -5 -221 l-8 -218 -45 -13 c-101 -29 -234 -44 -517 -58 -328
-16 -551 -31 -688 -45 -49 -5 -109 -10 -133 -10 l-42 0 16 25 c19 28 33 20
-135 85 -58 22 -107 36 -110 31 -4 -5 -35 -3 -75 5 -38 8 -71 12 -74 10 -4 -5
170 -90 251 -123 29 -12 36 -20 32 -34 -9 -28 12 -59 52 -75 36 -16 166 -11
533 17 508 38 727 72 886 137 l52 21 -5 -112 c-5 -144 -8 -153 -40 -166 -16
-6 -46 -22 -68 -36 -21 -13 -43 -21 -49 -18 -5 3 -6 2 -3 -4 4 -6 -6 -16 -21
-24 l-27 -13 35 -3 c19 -2 63 -6 98 -9 l62 -6 0 -173 0 -173 -76 20 c-42 10
-80 18 -84 16 -5 -2 25 -65 66 -142 42 -76 74 -139 72 -141 -2 -2 -151 5 -333
15 -344 19 -392 26 -790 115 -38 9 -82 18 -97 22 -56 11 -25 19 120 31 220 17
667 98 735 133 57 30 69 61 45 114 -16 36 -150 121 -218 138 -50 13 -53 21
-25 62 14 21 24 43 22 49 -2 6 -23 15 -46 20 -23 5 -40 14 -38 20 12 42 186
80 425 92 189 10 174 25 -45 43 -118 11 -288 -1 -353 -24 -52 -17 -97 -55
-111 -92 -11 -31 -12 -93 0 -93 5 0 11 -13 14 -29 10 -48 52 -78 144 -102 87
-23 176 -70 200 -105 12 -18 11 -24 -4 -43 -10 -12 -36 -26 -58 -31 -116 -27
-451 -56 -782 -69 -131 -5 -252 -15 -270 -21 -23 -8 -38 -24 -54 -56 -12 -25
-19 -47 -16 -50 7 -7 108 -31 252 -60 101 -20 110 -23 55 -19 -36 2 -271 14
-522 27 -383 18 -455 24 -446 36 6 7 11 38 10 67 -1 48 2 56 26 73 58 41 225
72 391 72 54 0 192 -7 307 -16 217 -17 404 -14 505 7 62 13 133 50 144 76 8
18 8 115 -1 144 -14 50 -294 145 -599 203 -205 38 -209 39 -232 41 l-22 2 24
-29 c14 -16 25 -36 25 -43 0 -16 2 -17 165 -49 72 -14 186 -42 253 -61 68 -19
134 -35 147 -35 13 0 28 -6 32 -12 4 -7 36 -26 70 -42 34 -16 64 -35 67 -42 8
-20 -26 -42 -94 -61 -58 -16 -106 -18 -462 -15 -434 3 -508 -3 -660 -55 -113
-39 -147 -83 -124 -165 11 -36 -22 -68 -68 -68 -32 0 -1422 70 -2084 105 -155
8 -295 15 -310 16 -23 1 -21 2 11 10 62 15 137 50 137 66 0 7 -6 13 -12 11
-37 -7 -256 16 -301 31 -106 37 -221 107 -252 155 -22 33 -7 59 44 79 43 17
368 95 516 123 50 9 91 18 92 19 2 0 -7 26 -18 55 -12 32 -23 91 -26 143 -6
84 -7 88 -27 83 -12 -3 -91 -20 -176 -37 -137 -28 -175 -32 -330 -33 -96 -1
-194 2 -217 7 -72 12 -49 -10 36 -37 132 -42 313 -49 536 -22 25 3 12 -3 -35
-16 -66 -19 -102 -21 -310 -22 -215 -1 -238 -3 -265 -20 -30 -19 -75 -66 -75
-77 0 -19 16 -13 41 16 21 24 43 36 77 44 47 10 132 4 132 -9 0 -4 -26 -13
-57 -19 -32 -7 -91 -26 -130 -41 l-73 -28 0 113 c0 95 3 114 18 128 19 18 323
95 482 123 52 9 158 19 234 23 l139 6 14 69 c8 38 23 86 34 107 10 21 16 44
13 52 -3 8 -1 18 5 22 6 3 11 28 11 55 0 76 16 85 170 93 45 2 89 11 110 22
44 22 97 71 117 108 13 25 19 28 46 23 18 -3 111 -8 207 -12z m7345 -299 c62
-62 -2 -162 -85 -134 -82 29 -57 159 30 159 19 0 40 -9 55 -25z m-8785 -59
c30 -9 84 -18 119 -21 70 -5 83 -10 52 -20 -36 -11 -23 -25 27 -26 44 -1 43
-2 -28 -15 -41 -7 -108 -13 -147 -13 -144 -2 -56 -40 109 -48 l107 -6 -97 -33
c-53 -19 -128 -49 -167 -68 l-72 -33 -11 30 c-6 16 -9 35 -5 41 3 6 3 8 -2 4
-4 -4 -14 0 -21 10 -14 18 -19 156 -8 223 l6 36 42 -23 c22 -12 66 -29 96 -38z
m625 55 c12 -5 -13 -10 -70 -14 -50 -4 -108 -9 -130 -12 l-40 -5 50 19 c51 20
153 26 190 12z m-338 -117 c-3 -3 -12 -4 -19 -1 -8 3 -5 6 6 6 11 1 17 -2 13
-5z m388 -421 c-289 -67 -506 -128 -567 -161 -31 -16 -53 -36 -63 -59 -44 -92
26 -164 232 -238 l63 -22 -46 -7 c-81 -11 -120 -7 -188 19 -61 23 -243 51
-255 40 -8 -9 34 -47 74 -68 31 -16 68 -22 170 -28 77 -4 146 -13 170 -22 40
-16 39 -16 -50 -10 -49 3 -155 8 -235 11 l-145 7 0 207 c0 114 3 210 6 213 25
25 297 74 524 96 66 6 149 15 185 19 72 8 156 10 125 3z m3950 -858 c62 -62
-2 -162 -85 -134 -82 29 -57 159 30 159 19 0 40 -9 55 -25z m3595 -715 c11
-11 20 -26 20 -33 0 -24 -31 -57 -55 -57 -49 0 -72 55 -38 92 21 24 48 23 73
-2z m-9963 -32 c51 -48 15 -138 -56 -138 -47 0 -81 32 -81 79 0 72 84 109 137
59z m3903 -607 c0 -8 75 -20 148 -24 29 -2 32 -5 30 -27 -2 -14 -7 -29 -13
-33 -7 -6 -6 -10 2 -13 9 -4 10 -28 6 -88 l-6 -83 34 -23 c19 -13 66 -55 105
-92 l71 -69 7 118 c9 160 14 183 37 183 25 0 24 15 -3 36 l-23 16 25 -6 c14
-3 33 -6 43 -6 10 0 17 -8 17 -19 0 -11 -8 -21 -17 -23 -12 -2 -2 -11 29 -26
56 -26 68 -27 68 -8 0 12 6 13 30 4 17 -5 37 -8 45 -4 8 3 17 1 20 -4 4 -6
-10 -10 -32 -10 -27 0 -34 -3 -24 -9 8 -5 16 -17 17 -26 3 -23 16 -33 21 -18
4 10 11 9 33 -2 37 -19 50 -19 50 0 0 13 4 14 22 4 12 -6 33 -15 47 -20 22 -6
18 -7 -19 -8 -44 -1 -44 -1 -22 -17 13 -9 32 -14 44 -11 19 5 19 4 3 -12 -15
-18 -14 -19 15 -23 24 -4 30 -1 30 14 0 24 22 23 45 -2 10 -11 33 -25 51 -32
18 -6 31 -15 28 -20 -3 -4 2 -8 10 -8 9 0 16 -4 16 -10 0 -5 11 -12 25 -16 33
-8 32 -24 -1 -24 -23 0 -24 -2 -10 -15 8 -8 19 -15 25 -15 6 0 11 -8 11 -17 0
-11 15 -24 40 -35 33 -14 40 -14 40 -2 0 17 12 18 28 2 16 -16 15 -26 -5 -30
-15 -3 -15 -4 0 -17 15 -12 17 -11 17 3 0 33 34 13 116 -68 85 -86 102 -116
62 -116 -21 0 -21 0 -2 -21 l19 -21 3 21 c2 11 7 21 11 21 14 0 33 -29 26 -40
-8 -14 16 -80 30 -80 6 0 18 -12 27 -27 l17 -28 1 28 c0 36 13 34 30 -5 7 -18
15 -36 18 -40 2 -5 -4 -8 -13 -8 -9 0 -15 -5 -13 -12 7 -21 25 -19 32 4 l7 23
10 -25 c5 -13 21 -39 34 -57 30 -38 31 -53 6 -53 -14 0 -18 -5 -14 -21 4 -14
12 -19 23 -16 12 3 16 0 13 -12 -2 -9 3 -30 11 -46 l16 -30 1 50 c1 40 2 45 8
24 5 -14 14 -35 20 -47 10 -18 9 -22 -4 -22 -19 0 -19 -13 0 -50 16 -30 54
-42 56 -17 0 6 5 1 10 -12 8 -19 5 -29 -11 -46 -24 -25 -26 -37 -5 -29 8 4 15
1 15 -5 0 -6 7 -11 17 -11 9 0 13 3 10 7 -4 3 -2 12 4 20 8 8 8 13 1 13 -6 0
-12 -6 -15 -12 -2 -7 -8 -10 -12 -6 -11 11 4 28 25 28 20 0 58 46 47 56 -3 3
2 13 12 23 16 16 108 176 476 835 103 183 169 292 181 295 11 3 218 5 462 3
l442 -3 2 -687 c1 -378 2 -902 2 -1164 l-1 -478 213 0 214 0 0 -256 c0 -214 2
-255 14 -251 62 24 169 51 266 67 100 16 138 17 275 10 172 -10 278 -20 271
-27 -2 -3 -53 -9 -113 -14 -278 -24 -536 -107 -743 -240 -88 -56 -261 -228
-315 -313 -72 -114 -83 -149 -77 -257 l5 -95 -84 -41 c-46 -23 -118 -61 -159
-86 -41 -25 -76 -41 -78 -37 -2 4 13 60 33 125 95 313 111 546 42 604 -23 18
-63 1 -110 -47 -75 -77 -106 -207 -88 -370 9 -86 47 -266 66 -314 7 -17 -8
-18 -233 -18 l-239 0 -5 69 c-3 38 -3 206 0 373 3 167 2 338 -2 381 l-8 77
-371 -1 c-205 0 -390 -4 -412 -8 -39 -8 -39 -9 -7 -10 33 -1 40 -9 22 -27 -5
-5 -16 -27 -24 -49 l-15 -40 0 45 c-1 40 -2 43 -14 25 -8 -11 -15 -42 -16 -70
-1 -27 -12 -70 -24 -95 l-22 -45 -5 33 -5 33 -28 -43 c-23 -35 -25 -44 -12
-46 21 -5 19 -32 -5 -62 -11 -14 -20 -30 -20 -36 0 -6 -6 -17 -14 -23 -11 -9
-18 -6 -35 15 -20 25 -21 25 -21 5 0 -12 6 -21 16 -21 9 0 14 -3 12 -7 -10
-22 -27 -60 -34 -78 -6 -17 -9 -14 -13 17 l-6 36 -18 -24 c-13 -17 -14 -24 -5
-24 7 -1 0 -8 -17 -17 -30 -17 -30 -17 -6 -23 21 -5 22 -7 7 -19 -12 -10 -14
-17 -5 -27 6 -8 8 -14 4 -14 -4 0 -1 -8 6 -17 11 -15 11 -16 0 -6 -7 6 -21 9
-30 6 -11 -4 -10 -1 4 11 20 17 20 17 -2 6 -31 -15 -36 -27 -16 -39 16 -9 15
-10 -7 -8 -16 1 -24 -3 -22 -11 1 -8 -2 -11 -8 -7 -6 3 -7 12 -3 18 4 8 1 8
-9 -1 -9 -7 -14 -22 -11 -35 4 -21 4 -22 -11 -3 -9 11 -16 14 -16 8 0 -7 -7
-12 -15 -12 -8 0 -15 -5 -15 -11 0 -5 4 -8 8 -5 4 2 8 -4 8 -14 0 -11 -2 -17
-4 -15 -3 2 -25 -17 -49 -42 -25 -27 -41 -39 -38 -28 6 20 6 20 -9 0 -37 -46
-67 -73 -86 -78 -11 -3 -20 -1 -20 4 0 5 -9 9 -20 9 -11 0 -20 -4 -20 -10 0
-5 5 -10 11 -10 5 0 7 -5 3 -11 -4 -7 -9 -7 -13 -2 -3 6 -17 15 -31 22 -22 11
-23 11 -7 -2 16 -14 16 -16 2 -31 -15 -15 -14 -16 20 -16 22 0 34 -4 30 -10
-3 -5 -15 -10 -25 -10 -10 0 -25 -7 -34 -15 -8 -8 -19 -15 -25 -15 -6 0 -10
-5 -8 -11 1 -6 -7 -16 -18 -22 -11 -7 -32 -20 -47 -29 -32 -22 -58 -23 -58 -3
0 12 -4 13 -19 6 -10 -6 -22 -7 -27 -3 -5 4 -2 -2 6 -12 14 -18 14 -19 -7 -8
-29 16 -34 15 -27 -3 4 -9 0 -16 -7 -16 -8 -1 2 -5 21 -9 l35 -7 -30 -12 c-16
-7 -32 -16 -35 -21 -3 -5 -35 -10 -70 -11 -38 -1 -70 -8 -78 -16 -11 -11 -7
-13 25 -14 l38 -1 -37 -15 c-21 -9 -38 -20 -38 -24 0 -5 -7 -9 -15 -9 -8 0
-15 9 -15 20 0 22 -12 25 -41 9 -11 -6 -30 -12 -41 -14 -27 -6 -36 -15 -15
-15 10 0 17 -8 17 -19 0 -14 -10 -20 -44 -25 -24 -4 -52 -13 -62 -21 -21 -16
-130 -21 -136 -6 -1 4 -12 5 -23 0 -19 -7 -19 -8 3 -8 26 -1 30 -21 4 -21 -10
0 -23 -5 -30 -12 -7 -7 -31 -13 -53 -13 -27 -1 -46 -7 -54 -19 -12 -16 -41
-18 -365 -18 -228 -1 -354 2 -358 9 -7 10 -79 22 -149 26 -18 1 -38 8 -45 15
-6 6 -20 12 -30 12 -26 0 -22 20 5 21 21 0 21 1 2 8 -11 5 -21 4 -23 0 -6 -15
-115 -10 -136 6 -10 8 -38 17 -62 21 -35 5 -44 10 -44 26 0 17 -6 20 -44 17
-30 -3 -42 0 -39 7 6 16 -8 23 -59 33 l-43 9 40 1 40 2 -55 34 c-59 38 -80 43
-80 20 0 -13 -4 -14 -22 -4 -12 6 -33 15 -47 20 -22 6 -18 7 19 8 44 1 44 1
22 17 -13 9 -31 14 -41 11 -14 -3 -17 0 -14 13 3 11 -2 19 -16 23 -16 4 -21 0
-21 -14 0 -23 -23 -25 -41 -2 -8 9 -32 24 -54 35 -37 16 -38 18 -17 24 23 7
25 25 4 32 -7 2 -12 -3 -12 -12 0 -9 -7 -16 -15 -16 -8 0 -15 4 -15 10 0 5
-11 12 -25 16 -33 8 -32 24 1 24 23 0 24 2 10 15 -8 8 -19 15 -25 15 -6 0 -11
6 -11 13 0 15 -65 41 -80 32 -11 -7 -40 12 -40 25 0 5 7 10 17 12 15 3 15 4 0
17 -15 12 -17 11 -17 -3 0 -33 -34 -13 -116 68 -86 87 -100 112 -63 118 l21 3
-21 19 c-21 19 -21 19 -21 -2 0 -25 -10 -28 -28 -10 -16 16 -15 28 2 28 12 0
12 7 -2 40 -9 22 -24 40 -32 40 -9 0 -23 12 -32 28 l-17 27 -1 -27 c0 -39 -12
-34 -33 12 -10 22 -23 38 -28 34 -5 -3 -9 1 -9 9 0 8 -13 33 -30 55 -35 48
-37 62 -12 62 15 0 18 6 14 30 -4 26 -6 27 -19 15 -19 -19 -22 -19 -16 3 2 10
-3 31 -11 47 l-16 30 -1 -50 c-1 -40 -2 -45 -8 -24 -5 14 -14 35 -20 47 -10
18 -9 22 4 22 19 0 19 13 0 50 -11 22 -12 30 -2 33 9 4 8 8 -3 16 -11 7 -16 7
-19 -1 -2 -6 -10 0 -17 13 -13 23 -13 23 -14 -14 0 -22 -4 -36 -10 -32 -5 3
-7 12 -4 20 4 8 1 28 -4 44 -10 29 -9 30 21 33 18 2 -6 7 -53 12 -47 4 -98 6
-115 4 l-30 -3 -3 -447 -2 -448 -388 0 -387 0 -38 25 -37 26 0 424 0 425 -155
0 -155 0 31 -52 c55 -95 118 -234 153 -340 54 -161 104 -436 78 -427 -6 2 -57
29 -115 59 l-105 54 -16 79 c-39 179 -116 360 -215 505 -34 49 -69 96 -79 105
-16 15 -64 17 -408 19 l-389 3 -3 237 -2 237 -53 16 c-140 42 -420 84 -565 86
-116 1 -80 11 144 39 140 18 210 21 324 17 l145 -5 25 52 c14 28 78 143 141
256 64 113 132 234 151 270 20 36 78 142 130 235 53 94 152 271 221 395 68
124 157 281 196 350 38 69 155 276 258 461 l187 336 231 6 c126 4 335 7 463 7
l232 0 2 -912 c1 -502 4 -893 7 -868 5 39 6 34 11 -40 6 -83 6 -82 9 45 4 154
17 221 22 105 l3 -75 6 75 c4 41 8 64 9 50 2 -22 4 -20 17 15 8 22 13 56 11
75 -3 33 -4 32 -5 -7 -1 -29 -6 -43 -16 -43 -19 0 -14 79 7 111 8 13 18 48 22
77 6 42 10 52 26 52 11 0 19 -7 20 -17 1 -17 2 -17 6 0 2 9 8 17 12 17 4 0 13
17 20 38 18 51 39 100 62 143 23 44 24 59 4 59 -13 0 -14 4 -4 22 6 12 15 33
20 47 6 21 7 16 8 -24 l1 -50 15 29 c8 15 15 35 15 42 0 8 6 14 14 14 7 0 16
9 19 20 4 15 0 20 -14 20 -10 0 -19 4 -19 9 0 13 64 110 73 110 16 2 6 -35
-13 -47 -13 -8 -20 -22 -19 -40 1 -17 3 -20 6 -9 2 9 8 17 13 17 16 0 46 73
32 78 -19 6 -14 23 13 48 18 16 25 19 25 9 0 -22 21 -18 27 5 3 11 13 20 22
20 9 0 23 17 33 40 9 22 12 40 7 40 -5 0 -9 7 -9 15 0 20 28 19 32 -1 3 -14 6
-13 22 5 19 21 19 21 -2 21 -15 0 -22 6 -22 20 0 11 6 20 13 20 15 0 67 54 67
69 0 6 6 11 13 11 15 0 67 54 67 69 0 6 9 11 20 11 12 0 20 -7 20 -16 0 -14 2
-14 16 -3 10 8 12 15 5 17 -17 6 -13 32 4 32 8 0 15 -4 15 -9 0 -5 18 -2 40 7
23 10 40 24 40 33 0 9 9 19 20 22 23 6 27 27 5 27 -10 0 -7 7 9 25 26 27 42
32 49 13 3 -10 9 -10 26 0 11 6 28 12 36 12 8 0 15 6 15 14 0 8 8 17 18 19 10
3 7 5 -10 6 -18 1 -32 -6 -40 -19 -7 -11 -21 -20 -30 -20 -28 0 -21 16 11 30
16 6 37 20 47 31 22 24 44 24 44 0 0 -14 5 -18 20 -14 11 3 20 12 20 19 0 8 8
14 18 14 9 0 26 7 36 15 18 14 17 15 -25 16 -37 1 -40 2 -18 8 14 5 35 14 47
20 18 10 22 9 22 -4 0 -21 19 -19 59 6 18 11 39 18 45 16 6 -2 19 5 29 15 16
17 16 18 -18 18 -24 0 -35 -5 -35 -15 0 -8 -9 -15 -20 -15 -18 0 -19 2 -8 20
7 11 21 20 31 20 10 0 31 7 47 15 28 15 30 14 30 -5 0 -23 3 -24 47 -8 28 10
33 17 33 44 0 32 1 33 56 40 36 4 62 14 74 26 12 13 23 17 32 12 16 -10 98
-12 92 -2 -6 9 36 38 54 38 8 0 13 -9 12 -22 -3 -35 -1 -45 8 -33 16 22 54 35
102 35 30 0 50 4 50 11 0 8 -22 10 -72 5 l-73 -6 40 15 c22 8 55 15 73 15 17
0 32 5 32 10 0 6 113 10 320 10 177 0 320 -4 320 -9z m-2320 -1251 c0 -11 -7
-20 -15 -20 -11 0 -15 -11 -15 -40 0 -34 -3 -40 -20 -40 -19 0 -20 2 -5 30 8
16 15 37 15 46 0 9 8 23 18 30 22 17 22 17 22 -6z m6970 -1945 c202 -42 479
-182 635 -320 l40 -36 -62 31 c-149 72 -331 133 -501 167 -129 25 -368 23
-487 -4 -180 -42 -356 -138 -492 -268 -37 -36 -73 -65 -79 -65 -5 0 -50 -13
-99 -30 -95 -32 -125 -37 -125 -19 0 34 212 256 330 345 146 111 333 190 503
214 81 12 245 4 337 -15z m-8628 -262 c22 -20 23 -56 2 -77 -18 -19 -65 -21
-82 -4 -7 7 -12 24 -12 39 0 52 54 77 92 42z m9563 -595 c40 -48 25 -106 -34
-126 -38 -13 -88 9 -102 45 -34 89 74 154 136 81z m-10030 -614 c83 -17 164
-61 197 -106 18 -25 24 -49 27 -105 3 -64 0 -78 -22 -116 -39 -67 -120 -106
-248 -120 l-99 -11 0 -174 0 -173 -22 3 -23 3 -3 400 c-1 220 0 405 2 411 5
14 96 8 191 -12z m810 7 c22 -10 46 -25 53 -33 9 -12 12 -101 10 -394 l-3
-379 -22 -3 -23 -3 0 195 0 196 -165 0 -165 0 0 -196 0 -195 -22 3 -23 3 -3
269 c-3 296 4 358 46 426 29 47 103 104 156 119 51 15 118 12 161 -8z m620 -3
c30 -16 85 -70 101 -100 22 -43 18 -68 -11 -68 -14 0 -25 5 -25 11 0 27 -36
83 -64 100 -41 25 -110 25 -150 -1 -89 -54 -130 -250 -92 -431 34 -161 111
-234 274 -263 l32 -5 0 159 0 160 -55 0 c-52 0 -55 1 -55 25 0 26 0 26 83 23
45 -2 81 -6 80 -10 -2 -5 -3 -99 -3 -209 l0 -201 -67 6 c-212 21 -302 107
-340 322 -19 109 -13 257 14 329 22 61 106 150 154 163 37 11 92 6 124 -10z
m805 -8 l0 -30 -185 0 -185 0 0 -140 0 -140 185 0 185 0 0 -30 0 -30 -185 0
-185 0 0 -190 0 -190 185 0 185 0 0 -25 0 -25 -210 0 -210 0 0 408 c0 225 3
412 7 415 3 4 98 7 210 7 l203 0 0 -30z m825 -317 l150 -348 3 348 2 347 25 0
25 0 0 -416 0 -415 -25 3 c-24 3 -39 33 -171 328 -80 179 -152 339 -160 355
-11 26 -13 -17 -14 -328 l0 -358 -27 3 -28 3 -3 413 -2 412 37 0 38 0 150
-347z m831 328 c86 -39 137 -143 153 -316 21 -214 -28 -390 -127 -455 -107
-71 -250 -41 -322 68 -50 76 -73 169 -74 297 0 211 57 350 167 404 54 27 146
28 203 2z m729 -11 c0 -25 -1 -25 -92 -28 l-93 -3 0 -384 0 -385 -25 0 -25 0
0 385 0 385 -95 0 -95 0 0 30 0 30 213 -2 212 -3 0 -25z m990 0 l0 -25 -187
-3 -188 -2 0 -140 0 -140 188 -2 187 -3 0 -25 0 -25 -187 -3 -188 -2 0 -215 0
-215 -25 0 -25 0 0 415 0 415 213 -2 212 -3 0 -25z m580 11 c71 -32 113 -97
140 -216 45 -196 13 -422 -73 -517 -43 -48 -73 -64 -134 -73 -111 -17 -221 56
-266 178 -65 172 -41 432 49 557 59 81 190 114 284 71z m1182 7 c6 -7 35 -71
66 -143 139 -321 234 -536 240 -542 4 -3 7 150 7 340 0 340 0 347 20 347 20 0
20 -7 20 -411 l0 -410 -22 3 c-20 3 -47 56 -185 368 l-162 365 -3 -365 -3
-365 -22 -3 -23 -3 0 409 c0 225 3 412 7 415 11 12 50 8 60 -5z m820 -14 c165
-42 232 -145 241 -371 4 -104 1 -132 -17 -190 -26 -88 -54 -130 -115 -170 -57
-39 -127 -61 -218 -70 l-68 -6 0 410 c0 225 2 412 5 415 9 9 106 -2 172 -18z
m-1546 -241 c0 -296 3 -342 25 -400 17 -46 70 -99 109 -109 64 -16 130 19 168
89 21 40 22 54 25 360 l3 317 25 0 24 0 0 -284 c0 -156 -5 -307 -10 -337 -23
-121 -80 -184 -177 -196 -92 -10 -156 25 -200 110 -32 63 -39 166 -35 494 2
205 3 213 22 213 19 0 20 -8 21 -257z m574 -768 c30 -29 31 -49 5 -75 -32 -32
-66 -25 -89 18 -13 25 -2 54 27 71 25 15 30 14 57 -14z m-6037 -101 c24 -17
30 -62 10 -82 -7 -7 -27 -12 -45 -12 -34 0 -53 21 -53 59 0 19 34 51 55 51 6
0 21 -7 33 -16z m5179 -756 c52 -49 15 -138 -57 -138 -50 0 -80 29 -80 80 0
73 83 109 137 58z m374 -330 c6 -11 8 -31 5 -44 -16 -64 -110 -46 -104 19 5
53 75 71 99 25z m-6734 -50 c30 -28 31 -83 1 -115 -47 -50 -138 -12 -138 57 0
68 87 105 137 58z m2229 -518 c55 -52 72 -123 32 -134 -49 -13 -66 -7 -73 24
-4 17 -18 38 -32 47 -23 15 -28 15 -52 2 -33 -18 -50 -67 -50 -144 -1 -78 14
-132 43 -151 31 -20 70 -10 85 22 18 41 14 52 -21 56 -31 3 -33 5 -33 43 l0
40 80 0 80 0 0 -125 c0 -120 -1 -125 -21 -128 -16 -2 -23 4 -28 24 l-7 27 -25
-24 c-37 -35 -127 -39 -174 -7 -99 67 -122 272 -44 391 33 51 74 68 151 64 50
-2 68 -8 89 -27z m395 -5 c50 -48 62 -88 63 -205 1 -94 -2 -111 -24 -154 -31
-60 -75 -86 -146 -86 -63 0 -108 28 -138 85 -18 34 -21 58 -21 155 0 133 16
178 75 218 30 20 45 23 97 20 53 -3 68 -9 94 -33z m493 25 c59 -13 79 -39 84
-109 4 -54 2 -62 -21 -85 l-26 -26 28 -28 c56 -55 45 -147 -22 -196 -24 -18
-43 -21 -145 -21 l-117 0 -3 225 c-1 123 0 230 2 237 6 15 159 18 220 3z m427
-227 c36 -128 64 -235 61 -238 -3 -3 -27 -5 -53 -5 l-47 0 -12 50 -12 50 -69
0 c-49 0 -69 -4 -69 -12 0 -7 -5 -30 -11 -50 -10 -37 -12 -38 -54 -38 -25 0
-45 4 -45 9 0 7 121 417 135 459 3 9 21 12 57 10 l52 -3 67 -232z m347 217
c36 -22 71 -87 72 -131 0 -25 -4 -27 -46 -31 -26 -2 -48 1 -49 7 -2 5 -6 22
-9 37 -3 15 -13 34 -22 42 -40 41 -88 -4 -98 -91 -13 -119 17 -213 68 -213 22
0 53 37 60 72 4 22 10 29 22 24 9 -3 31 -6 49 -6 32 0 33 -1 25 -35 -20 -88
-77 -135 -166 -135 -67 0 -111 29 -144 95 -21 43 -25 64 -25 145 0 81 4 102
25 145 34 68 77 95 149 95 39 0 66 -6 89 -20z m242 -77 l5 -93 55 95 54 95 49
0 c58 0 59 1 -13 -105 l-50 -74 60 -138 c33 -76 60 -144 60 -150 0 -9 -16 -13
-48 -13 l-49 0 -43 110 c-42 107 -44 109 -59 88 -10 -15 -18 -53 -21 -108 l-5
-85 -50 0 -50 0 -3 225 c-1 123 0 231 3 238 3 9 20 12 52 10 l48 -3 5 -92z
m500 2 l0 -95 55 0 54 0 3 93 3 92 50 0 50 0 0 -235 0 -235 -50 0 -50 0 -3 98
-3 97 -54 0 -55 0 0 -100 0 -100 -50 0 -50 0 0 240 0 240 50 0 50 0 0 -95z
m561 60 c50 -48 62 -88 63 -205 1 -94 -2 -111 -24 -154 -31 -60 -75 -86 -146
-86 -63 0 -108 28 -138 85 -18 34 -21 58 -21 155 0 133 16 178 75 218 30 20
45 23 97 20 53 -3 68 -9 94 -33z m324 -110 c18 -77 35 -133 38 -125 4 8 18 62
32 120 38 158 32 150 115 150 l70 0 0 -241 0 -240 -47 3 -48 3 -5 179 -5 179
-38 -159 c-49 -203 -49 -204 -86 -204 -19 0 -34 7 -39 18 -5 9 -24 88 -43 175
l-34 159 -5 -174 -5 -173 -40 0 -40 0 -3 225 c-1 123 0 230 3 238 3 9 24 12
77 10 l71 -3 32 -140z m630 100 l0 -40 -92 -3 -93 -3 0 -49 0 -49 73 -3 72 -3
0 -40 0 -40 -72 -3 -73 -3 0 -54 0 -55 96 0 95 0 -3 -42 -3 -43 -142 -3 -143
-3 0 241 0 241 143 -3 142 -3 0 -40z m245 -715 c0 -20 -7 -20 -2325 -20 -2380
0 -2352 0 -2318 33 3 4 1050 7 2325 7 2311 0 2318 0 2318 -20z m-2224 -2851
c3 -6 1 -16 -5 -22 -18 -18 -13 -27 19 -27 17 0 30 -4 30 -10 0 -5 -17 -10
-38 -10 -20 0 -52 -4 -70 -9 -45 -13 -38 9 8 24 21 7 29 14 22 19 -20 12 -14
46 7 46 11 0 23 -5 27 -11z m105 -111 c38 -21 84 -78 107 -131 11 -26 10 -29
-21 -47 -85 -53 -260 -78 -384 -56 l-43 8 0 46 c0 96 61 166 170 196 65 18
120 13 171 -16z m157 4 c2 -7 -3 -12 -12 -12 -20 0 -31 -42 -17 -68 13 -24 -6
-44 -20 -21 -4 8 -19 29 -33 48 -14 19 -26 39 -26 43 0 14 27 9 40 -7 18 -21
27 -19 34 11 7 25 26 29 34 6z m-3038 -177 l0 -175 -24 0 c-13 0 -27 7 -30 15
-5 14 -8 14 -31 -1 -33 -22 -91 -21 -117 3 -69 61 -60 193 16 230 34 16 61 13
122 -13 6 -3 9 9 6 31 -7 56 5 85 33 85 l25 0 0 -175z m615 145 c0 -18 -6 -26
-23 -28 -13 -2 -25 3 -28 12 -10 26 4 48 28 44 17 -2 23 -10 23 -28z m1110
-145 c0 -169 0 -170 -23 -173 -13 -2 -24 3 -28 12 -5 14 -9 14 -37 -1 -88 -45
-157 8 -157 121 0 47 4 61 29 88 25 28 36 33 74 33 30 0 52 -6 66 -19 l21 -19
0 60 c0 66 5 75 35 71 19 -3 20 -9 20 -173z m203 113 c2 -32 4 -58 6 -58 2 0
17 7 35 16 44 22 93 11 125 -27 46 -54 30 -180 -25 -210 -31 -16 -83 -14 -112
5 -22 15 -25 15 -31 1 -3 -10 -15 -15 -28 -13 -23 3 -23 6 -26 153 -3 177 0
198 31 193 19 -3 22 -10 25 -60z m1370 40 c2 -12 -5 -17 -30 -20 -27 -2 -34
-8 -36 -30 -3 -21 1 -27 20 -30 33 -5 37 -38 4 -38 l-26 0 0 -94 c0 -73 -4
-98 -16 -110 -8 -9 -17 -16 -19 -16 -2 0 -11 7 -19 16 -12 12 -16 37 -16 110
0 87 -1 94 -20 94 -13 0 -20 7 -20 20 0 13 7 20 19 20 13 0 20 10 24 36 9 55
23 65 81 62 38 -2 52 -7 54 -20z m1057 12 c11 -17 -5 -50 -24 -50 -28 0 -46
26 -31 45 14 17 46 20 55 5z m121 -24 c3 -19 4 -60 2 -90 -1 -31 -1 -56 2 -56
2 0 25 21 51 46 31 31 53 45 63 41 24 -9 19 -40 -9 -67 -14 -13 -25 -27 -25
-32 0 -5 16 -32 35 -61 42 -62 46 -97 11 -97 -18 0 -32 13 -57 55 -43 71 -61
66 -74 -18 -6 -34 -9 -38 -33 -35 l-27 3 -3 150 c-3 178 0 195 33 195 20 0 25
-6 31 -34z m-1913 -12 c3 -3 -3 -20 -14 -37 -10 -18 -19 -44 -19 -59 0 -19 -5
-28 -16 -28 -13 0 -15 8 -12 37 4 32 1 37 -24 47 -29 11 -39 36 -13 36 8 0 15
-7 15 -15 0 -22 38 -18 50 5 11 20 22 25 33 14z m-2350 -57 c42 -18 57 -37 64
-82 8 -49 -3 -55 -99 -55 -85 0 -97 -11 -58 -50 25 -25 68 -25 100 0 27 21 46
25 54 11 16 -26 -32 -67 -84 -71 -62 -5 -83 1 -116 34 -30 30 -34 40 -34 85 0
65 22 108 63 126 41 18 70 18 110 2z m272 -11 c27 -18 33 -51 11 -59 -7 -3
-30 6 -50 20 -31 23 -39 25 -62 14 -38 -17 -25 -34 43 -56 33 -11 68 -26 77
-34 22 -19 21 -74 -4 -96 -42 -38 -149 -36 -182 5 -39 49 -5 80 41 36 31 -30
88 -36 97 -11 9 23 -12 42 -60 54 -24 6 -53 19 -66 29 -39 31 -26 91 25 113
29 13 100 4 130 -15z m123 16 c9 -7 12 -39 10 -128 l-3 -119 -25 0 -25 0 -3
119 c-3 114 2 136 28 136 3 0 11 -4 18 -8z m205 -11 c30 -15 37 -16 37 -5 0
24 31 29 46 9 10 -13 14 -51 14 -124 0 -170 -20 -210 -109 -219 -58 -5 -117
12 -132 40 -23 42 14 65 48 29 45 -48 123 -30 123 29 l0 31 -30 -16 c-36 -19
-63 -19 -99 -1 -76 40 -75 198 3 232 42 18 55 17 99 -5z m190 -1 c12 -17 16
-18 26 -6 32 39 121 25 140 -23 7 -15 11 -65 9 -117 -3 -88 -3 -89 -29 -92
-33 -4 -39 14 -39 114 0 79 -13 101 -54 90 -32 -8 -39 -26 -45 -121 -6 -77 -7
-80 -31 -80 l-25 0 -3 119 c-2 89 1 121 10 128 19 12 25 10 41 -12z m392 4
c30 -14 65 -64 65 -92 0 -29 -33 -42 -106 -42 -62 0 -74 -3 -74 -17 0 -49 67
-69 113 -33 32 25 57 26 57 2 0 -45 -82 -78 -148 -60 -49 13 -70 33 -83 79
-36 118 68 215 176 163z m783 4 c5 -7 24 -51 41 -98 22 -63 32 -80 36 -65 40
126 61 170 80 170 13 0 21 -8 23 -22 4 -29 -103 -305 -125 -320 -19 -15 -81
-17 -102 -4 -23 15 -5 39 31 43 56 5 58 38 9 159 -44 110 -49 134 -28 142 20
8 24 8 35 -5z m1170 -4 c8 -14 11 -13 38 1 36 21 84 7 84 -25 0 -21 -6 -23
-56 -20 -18 1 -36 -5 -40 -12 -5 -7 -11 -51 -14 -98 -5 -83 -6 -85 -31 -88
-20 -2 -28 2 -33 20 -9 36 -7 184 4 212 11 29 34 34 48 10z m295 3 c42 -18 57
-37 64 -82 8 -49 -3 -55 -99 -55 -63 0 -78 -3 -78 -15 0 -24 38 -55 66 -55 14
0 37 9 51 20 28 22 48 25 57 11 19 -30 -41 -72 -105 -73 -83 -1 -131 45 -131
127 0 59 20 96 62 117 42 21 70 22 113 5z m296 -15 c14 -10 30 -35 35 -55 14
-56 -1 -67 -95 -67 -85 0 -93 -6 -63 -48 20 -29 65 -29 104 -1 38 28 65 20 49
-15 -21 -46 -116 -63 -177 -32 -51 27 -72 117 -41 182 29 61 128 81 188 36z
m123 9 c11 -18 12 -18 45 2 30 17 39 18 74 8 48 -14 71 -47 77 -110 10 -110
-81 -181 -164 -126 l-24 15 0 -52 c0 -61 -10 -81 -36 -76 -18 3 -19 16 -22
172 -2 129 1 171 10 178 19 12 27 10 40 -11z m286 7 c19 -19 16 -222 -4 -242
-19 -20 -19 -20 -39 0 -13 13 -16 36 -14 118 1 55 5 109 11 119 10 20 29 22
46 5z m627 -3 c32 -16 60 -58 50 -76 -11 -17 -41 -9 -65 16 -30 32 -63 32 -89
-1 -29 -37 -27 -89 4 -119 32 -33 50 -31 87 5 34 34 61 36 66 4 2 -14 -8 -31
-28 -48 -26 -21 -42 -26 -87 -26 -49 0 -59 4 -89 34 -30 30 -34 40 -34 85 0
65 19 103 62 124 42 21 81 21 123 2z m252 4 c65 -24 93 -80 78 -156 -3 -20
-19 -49 -35 -65 -24 -23 -37 -28 -80 -28 -69 0 -104 20 -124 72 -46 114 49
220 161 177z m166 -4 c13 -13 19 -13 46 1 35 17 82 12 102 -12 10 -13 14 -12
31 3 30 27 95 23 119 -6 16 -19 19 -40 19 -122 0 -84 -3 -100 -18 -108 -35
-19 -47 3 -52 100 -4 72 -9 94 -22 103 -13 8 -22 6 -37 -8 -18 -16 -21 -31
-21 -97 0 -57 -4 -82 -16 -93 -19 -20 -19 -20 -38 0 -12 11 -16 36 -16 98 0
96 -12 117 -55 98 -23 -11 -25 -17 -25 -76 0 -35 -3 -78 -6 -95 -6 -27 -11
-32 -33 -29 l-26 3 -3 119 c-2 89 1 121 10 128 18 11 25 10 41 -7z m-2409
-160 c-33 -70 -122 -115 -228 -115 -87 0 -130 15 -165 57 -54 65 -50 69 50 59
102 -11 213 6 301 46 49 23 53 23 56 7 2 -10 -4 -34 -14 -54z m1749 -37 c15
-23 1 -48 -28 -48 -14 0 -25 2 -25 4 0 2 -3 11 -6 19 -6 16 23 50 39 44 6 -2
15 -10 20 -19z"/>
<path d="M11935 15099 c-269 -14 -707 -79 -845 -125 -137 -46 -185 -82 -285
-212 -53 -68 -120 -115 -191 -133 -42 -11 -45 -14 -39 -38 4 -14 8 -27 9 -29
6 -6 102 31 143 54 52 30 83 72 83 114 0 29 2 32 25 26 20 -5 27 -2 34 17 5
13 34 46 65 74 127 116 348 160 856 168 l265 5 -107 -25 c-125 -28 -248 -45
-335 -45 -54 0 -67 -4 -93 -27 -41 -38 -48 -86 -22 -147 19 -43 23 -46 58 -46
l38 0 -31 31 c-18 16 -35 43 -38 59 -16 73 25 100 149 100 47 0 165 9 263 21
152 18 216 20 433 16 283 -6 394 -20 640 -84 182 -47 180 -47 180 -37 -1 14
-164 85 -280 121 l-105 34 85 -7 c47 -3 150 -14 230 -25 80 -10 146 -19 148
-19 1 0 2 4 2 9 0 19 -349 91 -585 121 -138 17 -520 42 -580 38 -11 0 -87 -5
-170 -9z"/>
<path d="M8979 14924 c-12 -19 -20 -36 -18 -38 8 -7 329 -14 329 -8 -1 21 -25
32 -120 50 -183 35 -166 36 -191 -4z"/>
<path d="M12245 14931 c-190 -8 -231 -17 -270 -61 -14 -15 -20 -36 -20 -69 0
-133 144 -186 510 -186 143 0 214 5 287 18 54 11 100 23 103 27 3 4 -39 11
-92 15 -372 24 -671 57 -702 76 -30 19 -47 57 -35 77 23 35 61 52 139 62 106
14 171 7 485 -51 276 -51 344 -69 359 -97 13 -23 25 -9 18 20 -9 33 -73 71
-180 106 -190 63 -303 74 -602 63z"/>
<path d="M8941 14824 c-22 -88 -21 -90 72 -104 45 -7 88 -16 95 -19 7 -4 -26
-12 -73 -19 -118 -17 -115 -15 -115 -78 0 -106 45 -242 76 -230 7 3 74 11 146
17 73 7 136 17 140 23 8 11 22 76 33 154 l7 42 -64 1 c-34 1 -49 4 -33 6 98
12 95 9 95 63 l0 48 -101 24 -101 25 83 18 c46 10 90 18 97 18 7 0 10 7 7 14
-3 8 -5 17 -5 19 0 3 -53 2 -117 -2 -90 -5 -132 -3 -175 9 l-56 15 -11 -44z"/>
<path d="M9650 14670 c-6 -12 -8 -25 -3 -29 10 -8 263 -2 263 7 -1 24 -25 31
-132 37 -113 7 -116 7 -128 -15z"/>
<path d="M10383 14610 c-73 -3 -136 -9 -141 -15 -6 -5 -13 -25 -17 -42 l-7
-33 156 0 156 0 -1 28 c-2 69 0 68 -146 62z"/>
<path d="M9359 14513 c-9 -54 -15 -99 -15 -99 1 -1 52 -5 114 -9 l112 -7 0 90
c0 50 3 97 6 106 5 14 -7 16 -98 16 l-104 0 -15 -97z"/>
<path d="M9625 14592 c-3 -8 -5 -31 -5 -53 l0 -39 48 0 c27 0 97 3 155 7 l107
6 0 39 c0 22 -5 40 -12 43 -7 2 -75 6 -150 7 -108 2 -139 0 -143 -10z"/>
<path d="M10073 14603 l-93 -4 0 -42 0 -42 92 4 c51 1 95 4 96 6 9 8 14 85 6
83 -5 -1 -51 -4 -101 -5z"/>
<path d="M8026 14582 c-3 -5 1 -9 9 -9 8 0 12 4 9 9 -3 4 -7 8 -9 8 -2 0 -6
-4 -9 -8z"/>
<path d="M10580 14529 c0 -15 7 -19 33 -19 19 0 68 -3 110 -6 67 -6 77 -5 77
9 0 20 -21 25 -132 30 -81 4 -88 3 -88 -14z"/>
<path d="M10850 14511 c0 -12 5 -21 11 -21 12 0 204 -27 252 -35 26 -4 28 -2
25 23 -3 26 -6 27 -78 34 -41 3 -105 9 -142 13 -64 6 -68 5 -68 -14z"/>
<path d="M11190 14472 c0 -29 1 -30 83 -42 45 -7 87 -17 93 -21 6 -5 13 -7 16
-4 2 3 74 -8 159 -25 85 -16 156 -30 158 -30 2 0 -4 9 -15 21 -27 30 -60 45
-129 59 -33 7 -75 18 -93 26 -18 7 -72 18 -120 24 -48 6 -102 13 -119 16 -31
5 -33 3 -33 -24z"/>
<path d="M9620 14441 c0 -22 5 -41 11 -41 5 0 7 -6 3 -12 -6 -10 -5 -10 8 0
11 9 48 11 147 6 128 -7 131 -7 131 14 0 11 2 27 5 35 5 11 -13 15 -91 21 -53
4 -123 9 -155 13 l-59 6 0 -42z"/>
<path d="M9977 14444 c-4 -4 -7 -17 -7 -29 0 -26 35 -35 138 -35 59 0 62 1 62
24 0 22 -5 24 -67 30 -38 4 -79 9 -93 12 -14 2 -29 2 -33 -2z"/>
<path d="M10222 14399 c3 -23 6 -24 128 -31 69 -4 135 -9 148 -11 16 -3 22 1
22 13 0 15 -17 19 -107 29 -60 6 -128 14 -151 18 -42 5 -44 4 -40 -18z"/>
<path d="M10570 14367 c0 -17 20 -22 115 -32 33 -3 72 -8 88 -11 22 -5 27 -2
27 14 0 21 -15 25 -157 38 -62 6 -73 4 -73 -9z"/>
<path d="M10850 14334 c0 -21 5 -24 35 -24 19 0 35 -2 35 -5 0 -3 -18 -23 -40
-44 -61 -58 -49 -78 26 -46 20 8 47 12 59 9 27 -7 65 3 65 17 0 5 -9 17 -20
26 -20 17 -19 17 7 45 l26 27 -24 5 c-13 3 -57 7 -96 9 -71 4 -73 4 -73 -19z"/>
<path d="M9666 14311 c-3 -4 2 -15 12 -23 54 -47 124 -52 173 -11 l32 28 -24
6 c-36 10 -187 10 -193 0z"/>
<path d="M9365 14296 c-63 -8 -100 -17 -119 -32 l-29 -21 159 -6 c88 -4 187
-7 221 -7 l61 0 -29 31 c-16 17 -29 35 -29 40 0 12 -121 9 -235 -5z"/>
<path d="M9907 14257 c-20 -22 -37 -42 -37 -43 0 -1 18 -4 41 -8 50 -8 142
-53 134 -66 -10 -17 -92 -61 -166 -89 -81 -31 -74 -43 17 -30 74 10 139 31
217 70 57 29 57 29 43 57 -26 49 -112 115 -182 139 -28 10 -33 8 -67 -30z"/>
<path d="M8825 14246 c-116 -14 -170 -37 -202 -85 -39 -59 -27 -138 26 -166
38 -19 86 -19 219 1 170 26 155 37 -66 50 -109 6 -112 7 -118 31 -12 45 26 68
171 106 72 19 148 38 170 42 l40 7 -25 14 c-30 16 -80 16 -215 0z"/>
<path d="M11010 14171 c-14 -5 -42 -20 -64 -34 -21 -15 -53 -29 -72 -33 -32
-6 -34 -9 -34 -45 0 -45 3 -46 81 -23 75 22 100 46 123 122 8 23 5 25 -34 13z"/>
<path d="M10298 14144 c-15 -8 -35 -29 -44 -47 -23 -45 -62 -85 -109 -110 -35
-20 -54 -22 -160 -20 -134 2 -137 -8 -8 -33 140 -27 244 6 309 96 20 28 46 53
58 56 11 2 74 -9 138 -25 65 -17 161 -34 213 -37 l95 -7 0 42 0 41 -47 0 c-63
0 -231 26 -296 45 -63 19 -114 19 -149 -1z"/>
<path d="M9803 12223 c-54 -5 -56 -23 -3 -23 22 0 40 5 40 10 0 6 60 10 160
10 100 0 160 -4 160 -10 0 -5 18 -10 40 -10 62 0 47 16 -21 24 -63 6 -300 6
-376 -1z"/>
<path d="M10320 12190 c0 -5 18 -10 40 -10 22 0 40 5 40 10 0 6 -18 10 -40 10
-22 0 -40 -4 -40 -10z"/>
<path d="M10448 12174 c22 -15 42 -12 42 7 0 5 -15 9 -32 9 -32 0 -32 0 -10
-16z"/>
<path d="M9405 12139 c16 -7 14 -9 -12 -6 -18 2 -30 0 -27 -5 3 -4 -19 -8 -49
-8 -55 0 -81 -14 -75 -40 2 -7 -3 -15 -11 -18 -9 -3 -11 0 -6 9 5 8 4 10 0 6
-14 -13 -14 -36 0 -31 7 3 16 0 20 -5 10 -18 26 -1 20 20 -8 24 2 24 29 2 20
-17 20 -17 7 0 -8 10 -9 17 -3 17 6 0 14 -4 17 -10 3 -5 11 -10 18 -10 6 0 2
7 -9 15 -25 19 -9 31 55 40 25 3 55 9 66 12 l20 6 -20 8 c-11 4 -29 8 -40 8
l-20 0 20 -10z m-145 -89 c0 -5 -2 -10 -4 -10 -3 0 -8 5 -11 10 -3 6 -1 10 4
10 6 0 11 -4 11 -10z"/>
<path d="M9470 12110 c-8 -5 -10 -10 -5 -10 6 0 17 5 25 10 8 5 11 10 5 10 -5
0 -17 -5 -25 -10z"/>
<path d="M9046 11973 c-6 -14 -5 -15 5 -6 7 7 10 15 7 18 -3 3 -9 -2 -12 -12z"/>
<path d="M11183 11873 c9 -2 17 -11 17 -19 0 -8 9 -14 20 -14 11 0 20 4 20 8
0 16 -25 32 -49 31 -17 -1 -20 -3 -8 -6z"/>
<path d="M11258 11813 c7 -3 16 -2 19 1 4 3 -2 6 -13 5 -11 0 -14 -3 -6 -6z"/>
<path d="M8480 11624 c0 -9 -9 -18 -20 -21 -11 -3 -20 -12 -20 -20 0 -10 13
-5 40 17 46 36 48 40 20 40 -12 0 -20 -7 -20 -16z"/>
<path d="M11494 11621 c12 -13 13 -20 6 -23 -8 -2 -7 -8 4 -17 14 -12 16 -10
16 14 0 28 0 28 23 9 20 -17 20 -16 -2 9 -14 15 -33 27 -44 27 -19 0 -19 -1
-3 -19z"/>
<path d="M8400 11544 c0 -9 -9 -18 -20 -21 -11 -3 -20 -12 -20 -20 0 -10 13
-5 40 17 46 36 48 40 20 40 -12 0 -20 -7 -20 -16z"/>
<path d="M11603 11544 c9 -11 15 -23 12 -26 -3 -3 1 -11 10 -18 29 -24 17 15
-12 41 -20 17 -23 18 -10 3z"/>
<path d="M11570 11516 c0 -2 7 -9 15 -16 12 -10 15 -10 15 4 0 9 -7 16 -15 16
-8 0 -15 -2 -15 -4z"/>
<path d="M6805 10972 c-99 -184 -224 -417 -279 -516 -234 -430 -376 -695 -376
-702 0 -7 828 0 835 8 3 3 4 351 3 775 l-3 770 -180 -335z"/>
<path d="M12807 11117 c-109 -204 -132 -246 -363 -678 -90 -168 -164 -311
-164 -318 0 -6 -5 -11 -11 -11 -8 0 -7 -5 1 -15 7 -9 10 -18 6 -22 -3 -3 -6
-1 -6 5 0 7 -5 12 -12 12 -6 0 -8 -3 -5 -7 4 -3 -1 -15 -10 -26 -10 -11 -13
-18 -8 -15 6 3 16 -1 23 -8 12 -13 10 -14 -11 -9 -17 5 -26 2 -31 -10 -3 -9
-2 -13 4 -10 6 3 10 -1 10 -9 0 -8 -8 -17 -17 -19 -17 -4 -17 -5 -1 -6 12 -1
15 -6 11 -18 -4 -11 -3 -14 5 -9 6 3 10 22 8 41 -1 19 1 32 6 29 5 -3 5 -61 2
-130 l-7 -124 336 0 337 0 0 770 c0 424 -1 770 -2 770 -2 0 -47 -82 -101 -183z"/>
<path d="M11840 11225 c0 -7 6 -18 14 -22 7 -4 16 -15 19 -23 3 -9 6 -5 6 11
1 24 -15 49 -31 49 -4 0 -8 -7 -8 -15z"/>
<path d="M12011 10848 c-13 -20 -12 -22 1 -11 8 7 18 10 22 6 4 -4 4 0 0 10
-8 21 -6 21 -23 -5z"/>
<path d="M7892 10748 c-7 -7 -12 -35 -12 -62 l0 -50 20 39 c30 59 25 106 -8
73z"/>
<path d="M12184 9948 c-4 -6 -3 -8 4 -4 18 11 24 -31 17 -109 -5 -53 -4 -75 4
-75 7 0 11 28 11 79 0 44 4 81 9 83 5 2 -1 11 -14 21 -17 12 -26 14 -31 5z"/>
<path d="M7774 9829 c-3 -6 -1 -16 4 -21 8 -8 11 -5 9 11 -1 24 -3 25 -13 10z"/>
<path d="M13690 9048 l0 -93 76 83 c41 45 83 86 92 92 12 7 -10 9 -75 10 l-93
0 0 -92z"/>
<path d="M11315 8960 c-22 -6 -66 -20 -97 -31 -41 -15 -68 -19 -94 -15 -29 6
-42 3 -67 -17 -53 -39 -64 -42 -33 -9 l30 32 -72 0 c-60 0 -74 -3 -78 -17 -15
-44 -69 -155 -109 -223 -89 -151 -211 -271 -364 -357 l-83 -47 70 -16 c39 -9
117 -38 174 -63 147 -66 212 -81 328 -75 101 6 196 33 284 82 26 15 51 24 56
21 5 -3 12 0 16 6 5 8 3 9 -7 4 -12 -8 -12 -6 0 8 11 14 17 15 28 5 12 -10 14
-9 11 3 -1 7 2 16 7 19 5 3 66 61 135 130 69 68 129 123 134 122 4 -2 14 2 20
8 7 5 15 7 18 4 3 -2 8 2 11 10 4 9 1 18 -6 22 -7 4 -9 4 -5 -1 9 -9 -30 -40
-39 -31 -4 3 1 14 9 23 21 25 33 59 16 46 -9 -7 -28 -5 -63 7 l-50 18 53 -5
c50 -6 55 -4 86 27 43 41 64 107 47 148 -7 16 -29 38 -50 50 -20 12 -43 33
-51 47 -31 57 -163 89 -265 65z"/>
<path d="M8121 8810 c-1 -25 15 -50 31 -50 13 0 9 28 -6 37 -7 4 -16 15 -19
23 -3 9 -6 5 -6 -10z"/>
<path d="M11840 8780 c0 -11 4 -20 9 -20 17 0 19 15 5 28 -12 11 -14 9 -14 -8z"/>
<path d="M8181 8734 c0 -11 3 -14 6 -6 3 7 2 16 -1 19 -3 4 -6 -2 -5 -13z"/>
<path d="M11655 8550 c-5 -8 42 -7 49 1 3 3 -6 5 -20 5 -14 0 -27 -3 -29 -6z"/>
<path d="M11611 8515 c-18 -8 -36 -13 -40 -10 -4 2 -8 -2 -8 -10 0 -8 3 -13 6
-11 3 1 23 10 44 20 20 9 37 19 37 21 0 6 0 7 -39 -10z"/>
<path d="M8360 8498 c0 -8 12 -25 27 -39 20 -17 23 -18 10 -3 -9 11 -15 23
-12 26 3 3 -1 11 -10 18 -12 10 -15 10 -15 -2z"/>
<path d="M8400 8495 c0 -8 7 -15 16 -15 14 0 14 3 4 15 -7 8 -14 15 -16 15 -2
0 -4 -7 -4 -15z"/>
<path d="M11569 8435 c-1 -6 -1 -14 0 -18 1 -4 -7 -7 -16 -5 -10 2 -18 -3 -19
-9 -1 -7 -2 -16 -3 -19 0 -4 -9 0 -18 7 -10 7 -15 9 -11 5 4 -5 3 -15 -3 -23
-20 -23 10 -15 42 11 15 13 34 26 41 29 10 4 11 7 1 18 -7 7 -14 9 -14 4z"/>
<path d="M8480 8405 c0 -28 0 -28 -22 -9 -21 17 -21 16 1 -9 14 -15 33 -27 44
-27 19 0 19 1 3 19 -12 13 -13 20 -6 23 8 2 7 8 -4 17 -14 12 -16 10 -16 -14z"/>
<path d="M11456 8361 c-9 -14 3 -38 19 -38 8 0 15 4 15 9 0 4 -7 8 -15 8 -8 0
-15 5 -15 11 0 5 5 7 10 4 6 -3 10 -1 10 4 0 13 -17 14 -24 2z"/>
<path d="M11420 8324 c24 -15 24 -15 2 -10 -18 3 -22 0 -20 -12 5 -24 34 -27
41 -3 5 22 -10 41 -32 41 -11 -1 -7 -6 9 -16z"/>
<path d="M11250 8206 c0 -2 7 -7 16 -10 8 -3 12 -2 9 4 -6 10 -25 14 -25 6z"/>
<path d="M10058 8193 c7 -3 16 -2 19 1 4 3 -2 6 -13 5 -11 0 -14 -3 -6 -6z"/>
<path d="M11208 8149 c18 -17 32 -16 32 4 0 7 -11 12 -24 12 -23 0 -23 -1 -8
-16z"/>
<path d="M8760 8152 c0 -16 25 -32 50 -31 16 1 19 3 8 6 -10 2 -18 11 -18 19
0 8 -9 14 -20 14 -11 0 -20 -4 -20 -8z"/>
<path d="M9240 7911 c0 -17 26 -30 48 -24 21 5 21 6 5 19 -20 15 -53 18 -53 5z"/>
<path d="M10695 7899 l-30 -19 36 0 c19 0 40 5 47 12 32 32 -6 37 -53 7z"/>
<path d="M9360 7870 c0 -5 12 -10 28 -10 21 0 24 2 12 10 -20 13 -40 13 -40 0z"/>
<path d="M9520 7825 c0 -10 10 -15 27 -15 26 0 26 1 7 15 -25 19 -34 19 -34 0z"/>
<path d="M10446 7825 c-19 -14 -19 -15 7 -15 17 0 27 5 27 15 0 19 -9 19 -34
0z"/>
<path d="M9600 7810 c0 -5 18 -10 40 -10 22 0 40 5 40 10 0 6 -18 10 -40 10
-22 0 -40 -4 -40 -10z"/>
<path d="M10338 7803 c12 -2 32 -2 45 0 12 2 2 4 -23 4 -25 0 -35 -2 -22 -4z"/>
<path d="M9760 7790 c0 -6 33 -9 83 -9 77 2 79 2 32 9 -72 12 -115 11 -115 0z"/>
<path d="M10120 7790 c-39 -6 -33 -7 38 -8 49 -1 82 2 82 8 0 11 -50 11 -120
0z"/>
<path d="M5730 7348 l0 -191 78 6 c42 3 97 13 122 22 90 32 142 114 121 190
-26 96 -105 143 -268 159 l-53 5 0 -191z"/>
<path d="M6526 7525 c-91 -32 -146 -118 -154 -242 l-5 -83 167 0 166 0 0 154
0 154 -34 16 c-41 19 -88 20 -140 1z"/>
<path d="M9605 7525 c-93 -33 -145 -137 -153 -309 -6 -138 9 -227 51 -297 45
-75 84 -99 161 -99 106 0 162 58 192 201 23 105 15 293 -15 371 -27 70 -76
123 -128 137 -48 14 -59 13 -108 -4z"/>
<path d="M11905 7525 c-53 -19 -97 -68 -126 -141 -21 -53 -24 -75 -24 -209 0
-133 3 -156 24 -208 53 -134 162 -186 273 -131 50 26 87 94 113 208 10 47 7
228 -6 287 -13 62 -48 136 -76 161 -25 23 -87 48 -115 48 -13 -1 -41 -7 -63
-15z"/>
<path d="M13940 7170 l0 -363 56 7 c115 13 194 68 235 162 29 65 42 181 29
270 -24 175 -110 270 -257 282 l-63 5 0 -363z"/>
<path d="M8364 4729 c-16 -18 -19 -37 -19 -139 0 -102 3 -121 19 -139 41 -45
80 -12 90 78 18 159 -30 266 -90 200z"/>
<path d="M8870 4695 l0 -55 45 0 c34 0 47 5 55 19 26 49 -5 91 -67 91 l-33 0
0 -55z"/>
<path d="M8870 4500 l0 -60 48 0 c56 0 72 12 72 55 0 43 -27 65 -78 65 l-42 0
0 -60z"/>
<path d="M9267 4625 c-10 -42 -17 -80 -17 -85 0 -6 18 -10 40 -10 25 0 40 5
40 13 0 24 -34 157 -40 157 -4 0 -14 -34 -23 -75z"/>
<path d="M10934 4729 c-16 -18 -19 -37 -19 -139 0 -102 3 -121 19 -139 41 -45
80 -12 90 78 18 159 -30 266 -90 200z"/>
<path d="M9896 1041 c-42 -46 8 -130 68 -115 54 13 70 78 30 118 -22 22 -77
20 -98 -3z"/>
<path d="M10122 1048 c-27 -27 -6 -68 35 -68 29 0 48 33 33 60 -12 22 -49 27
-68 8z"/>
<path d="M7107 952 c-21 -23 -23 -100 -4 -126 19 -26 67 -24 89 4 54 67 -28
185 -85 122z"/>
<path d="M8844 962 c-18 -11 -34 -49 -34 -77 0 -56 44 -93 85 -72 29 15 35 27
35 75 0 61 -46 101 -86 74z"/>
<path d="M9230 950 c-23 -23 -28 -96 -7 -122 39 -51 107 -12 107 62 0 45 -26
80 -60 80 -11 0 -29 -9 -40 -20z"/>
<path d="M7386 948 c-9 -12 -16 -26 -16 -30 0 -5 27 -8 60 -8 33 0 60 3 60 8
0 23 -34 52 -60 52 -18 0 -34 -8 -44 -22z"/>
<path d="M8006 948 c-9 -12 -16 -38 -16 -58 0 -48 24 -80 60 -80 37 0 60 32
60 82 0 68 -70 105 -104 56z"/>
<path d="M8560 951 c-18 -35 -12 -41 45 -41 46 0 55 3 55 18 0 27 -20 42 -57
42 -22 0 -36 -6 -43 -19z"/>
<path d="M10814 945 c-9 -14 -15 -27 -13 -29 7 -7 108 -10 115 -3 4 3 -1 18
-10 32 -11 17 -25 25 -46 25 -21 0 -35 -8 -46 -25z"/>
<path d="M11086 948 c-9 -12 -16 -26 -16 -30 0 -5 27 -8 60 -8 33 0 60 3 60 8
0 23 -34 52 -60 52 -18 0 -34 -8 -44 -22z"/>
<path d="M11361 944 c-48 -61 -5 -154 62 -136 11 3 26 21 34 40 35 85 -43 163
-96 96z"/>
<path d="M12410 950 c-14 -14 -20 -33 -20 -63 0 -93 90 -120 119 -36 29 82
-43 155 -99 99z"/>
</g>
</svg>
